<svg id="Layer_1" data-name="Layer 1" xmlns="http://www.w3.org/2000/svg" viewBox="0 0 177.985 49.881">
  <defs>
    <style>
      .cls-1 {
        fill: #009279;
      }

      .cls-2 {
        fill: #b5d334;
      }
    </style>
  </defs>
  <title>3466c2da-e62a-4daa-bb58-f10b55d963a6</title>
  <path class="cls-1" d="M0,25.4l10.319-.681a8.587,8.587,0,0,0,1.365,4.04,5.607,5.607,0,0,0,4.789,2.246,5.119,5.119,0,0,0,3.578-1.147,3.516,3.516,0,0,0,1.257-2.664,3.475,3.475,0,0,0-1.2-2.576q-1.2-1.135-5.555-2.146Q7.422,20.784,4.381,17.979a9.256,9.256,0,0,1-3.064-7.146A10.084,10.084,0,0,1,2.885,5.442,10.537,10.537,0,0,1,7.6,1.454,20.969,20.969,0,0,1,16.233,0q6.728,0,10.26,2.639t4.2,8.4l-10.224.631a5.91,5.91,0,0,0-1.712-3.636,5.3,5.3,0,0,0-3.6-1.137,4.19,4.19,0,0,0-2.851.848A2.641,2.641,0,0,0,11.348,9.8a2.092,2.092,0,0,0,.79,1.59,8.586,8.586,0,0,0,3.639,1.364,43.948,43.948,0,0,1,10.189,3.27,10.928,10.928,0,0,1,4.478,4.1,10.837,10.837,0,0,1,1.4,5.478,12.188,12.188,0,0,1-1.868,6.565,11.848,11.848,0,0,1-5.22,4.559,20.129,20.129,0,0,1-8.452,1.553q-8.955,0-12.4-3.637A14.7,14.7,0,0,1,0,25.4"/>
  <polyline class="cls-1" points="35.028 0.412 64.265 0.412 64.265 8.363 45.961 8.363 45.961 14.281 62.94 14.281 62.94 21.875 45.961 21.875 45.961 29.215 64.795 29.215 64.795 37.648 35.028 37.648 35.028 0.412"/>
  <path class="cls-1" d="M164.794,31.5H152.408l-1.722,6.147H139.547L152.817,0.412h11.9l13.267,37.236H166.562L164.794,31.5m-2.264-8.052-3.9-13.384-3.855,13.384h7.752Z"/>
  <polyline class="cls-2" points="68.758 37.648 81.1 37.648 81.1 24.464 68.758 37.648"/>
  <path class="cls-2" d="M85.328,26.269a8.328,8.328,0,0,0-1.976-2.87,3.637,3.637,0,0,0-.81-0.474l2.972-3.176,17.184,17.9H91.16l-5.832-11.38"/>
  <path class="cls-1" d="M98.312,26.857a14.635,14.635,0,0,0-1.529-2.313,11.437,11.437,0,0,0-1.744-1.958A10.641,10.641,0,0,0,92.2,21.215a12.8,12.8,0,0,0,3.831-1.473A10.1,10.1,0,0,0,99.477,16.1a10.826,10.826,0,0,0,1.253-5.347,10.673,10.673,0,0,0-1.638-6.031,8.271,8.271,0,0,0-4.311-3.392A25.106,25.106,0,0,0,87.049.412H68.758V35.637L85.513,17.847l17.15,17.9-4.351-8.885M89.63,13.824a4.03,4.03,0,0,1-1.772,1.221,6.238,6.238,0,0,1-2.889.455H81.1V7.931h4.061q2.986,0,4.071.964a3.517,3.517,0,0,1,1.082,2.768A3.576,3.576,0,0,1,89.63,13.824Z"/>
  <polyline class="cls-2" points="104.236 37.648 116.578 37.648 116.578 24.464 104.236 37.648"/>
  <path class="cls-2" d="M120.8,26.269a8.316,8.316,0,0,0-1.974-2.87,3.723,3.723,0,0,0-.81-0.474l2.973-3.176,17.181,17.9H126.637L120.8,26.269"/>
  <path class="cls-1" d="M133.789,26.857a14.57,14.57,0,0,0-1.526-2.313,11.52,11.52,0,0,0-1.744-1.958,10.673,10.673,0,0,0-2.841-1.372,12.834,12.834,0,0,0,3.832-1.473,10.092,10.092,0,0,0,3.446-3.644,10.836,10.836,0,0,0,1.253-5.347,10.688,10.688,0,0,0-1.637-6.031,8.283,8.283,0,0,0-4.313-3.392,25.1,25.1,0,0,0-7.731-.916H104.236V35.637l16.755-17.791,17.149,17.9-4.352-8.885m-8.682-13.033a4.026,4.026,0,0,1-1.769,1.221,6.245,6.245,0,0,1-2.89.455h-3.869V7.931h4.061q2.984,0,4.069.964a3.513,3.513,0,0,1,1.086,2.768A3.573,3.573,0,0,1,125.106,13.824Z"/>
  <path class="cls-1" d="M98.021,49.72V40.3H99.76V49.72H98.021Z"/>
  <path class="cls-1" d="M107.534,46.255l1.688,0.585a4.208,4.208,0,0,1-1.291,2.292,3.465,3.465,0,0,1-2.289.749A3.556,3.556,0,0,1,102.82,48.6a5.189,5.189,0,0,1-1.105-3.506,5.457,5.457,0,0,1,1.111-3.654,3.651,3.651,0,0,1,2.921-1.3,3.411,3.411,0,0,1,2.569,1.022,3.818,3.818,0,0,1,.882,1.735l-1.723.45a2.031,2.031,0,0,0-.638-1.157,1.728,1.728,0,0,0-1.179-.425,1.892,1.892,0,0,0-1.555.752,3.937,3.937,0,0,0-.6,2.437A4.229,4.229,0,0,0,104.1,47.5a1.846,1.846,0,0,0,1.528.758,1.659,1.659,0,0,0,1.193-.481A2.888,2.888,0,0,0,107.534,46.255Z"/>
  <path class="cls-1" d="M113.257,49.72V41.891H110.7V40.3h6.848v1.594H115V49.72h-1.74Z"/>
  <path class="cls-1" d="M123.214,40.3h3.18a5.7,5.7,0,0,1,1.641.18,2.859,2.859,0,0,1,1.3.867,4.225,4.225,0,0,1,.823,1.527,7.576,7.576,0,0,1,.282,2.227,6.747,6.747,0,0,1-.265,2.006,4.251,4.251,0,0,1-.923,1.665,3.006,3.006,0,0,1-1.223.752,4.845,4.845,0,0,1-1.54.2h-3.274V40.3Zm1.74,1.594v6.241h1.3a4.316,4.316,0,0,0,1.052-.09,1.572,1.572,0,0,0,.7-0.392,2.059,2.059,0,0,0,.455-0.91,6.661,6.661,0,0,0,.177-1.726,6.1,6.1,0,0,0-.177-1.678,2.211,2.211,0,0,0-.493-0.913,1.61,1.61,0,0,0-.806-0.443,7.271,7.271,0,0,0-1.429-.09h-0.781Z"/>
  <path class="cls-1" d="M132.5,41.968V40.3h1.651v1.671H132.5Zm0,7.752V42.894h1.651V49.72H132.5Z"/>
  <path class="cls-1" d="M140.065,47.547l1.646,0.3a2.949,2.949,0,0,1-1,1.507,2.765,2.765,0,0,1-1.714.518,2.7,2.7,0,0,1-2.41-1.163,4.182,4.182,0,0,1-.617-2.353,3.994,3.994,0,0,1,.812-2.658,2.571,2.571,0,0,1,2.052-.961,2.664,2.664,0,0,1,2.2,1.006,4.752,4.752,0,0,1,.771,3.082h-4.139a1.931,1.931,0,0,0,.4,1.25,1.2,1.2,0,0,0,.952.447,0.954,0.954,0,0,0,.652-0.231A1.464,1.464,0,0,0,140.065,47.547Zm0.094-1.825a1.842,1.842,0,0,0-.37-1.192,1.094,1.094,0,0,0-.858-0.408,1.107,1.107,0,0,0-.894.431,1.767,1.767,0,0,0-.347,1.17h2.469Z"/>
  <path class="cls-1" d="M149.426,49.72h-1.652V46.235a5.891,5.891,0,0,0-.105-1.43,1,1,0,0,0-.344-0.5,0.923,0.923,0,0,0-.573-0.18,1.251,1.251,0,0,0-.771.257,1.288,1.288,0,0,0-.467.682,6.378,6.378,0,0,0-.127,1.568V49.72h-1.651V42.894h1.534v1a2.44,2.44,0,0,1,2.058-1.157,2.3,2.3,0,0,1,1,.215,1.692,1.692,0,0,1,.685.55,2.065,2.065,0,0,1,.323.759,6.154,6.154,0,0,1,.092,1.215V49.72Z"/>
  <path class="cls-1" d="M151.121,47.773l1.657-.276a1.212,1.212,0,0,0,1.335,1.073,1.532,1.532,0,0,0,.964-0.257,0.6,0.6,0,0,0,.218-0.482,0.5,0.5,0,0,0-.118-0.341,1.258,1.258,0,0,0-.552-0.238,8.4,8.4,0,0,1-2.534-.88,1.811,1.811,0,0,1-.74-1.536,1.965,1.965,0,0,1,.641-1.491,2.809,2.809,0,0,1,1.986-.6,3.237,3.237,0,0,1,1.905.456,2.346,2.346,0,0,1,.858,1.35l-1.559.315a1.054,1.054,0,0,0-.379-0.61,1.294,1.294,0,0,0-.8-0.213,1.669,1.669,0,0,0-.935.2,0.44,0.44,0,0,0-.187.367,0.41,0.41,0,0,0,.164.327,5.832,5.832,0,0,0,1.543.508,4.385,4.385,0,0,1,1.843.8,1.744,1.744,0,0,1,.518,1.344,2.142,2.142,0,0,1-.717,1.613,2.99,2.99,0,0,1-2.122.675,3.261,3.261,0,0,1-2.02-.565A2.616,2.616,0,0,1,151.121,47.773Z"/>
  <path class="cls-1" d="M161.863,42.894v1.439h-1.128v2.751a7.519,7.519,0,0,0,.032.975,0.4,0.4,0,0,0,.146.228,0.435,0.435,0,0,0,.279.09,1.988,1.988,0,0,0,.664-0.173L162,49.6a3.048,3.048,0,0,1-1.306.27,1.911,1.911,0,0,1-.8-0.164,1.193,1.193,0,0,1-.526-0.424,1.78,1.78,0,0,1-.232-0.7,9.589,9.589,0,0,1-.053-1.272V44.333h-0.758V42.894h0.758V41.537l1.658-1.055v2.411h1.128Z"/>
  <path class="cls-1" d="M167.227,47.547l1.646,0.3a2.949,2.949,0,0,1-1,1.507,2.765,2.765,0,0,1-1.714.518,2.7,2.7,0,0,1-2.41-1.163,4.182,4.182,0,0,1-.617-2.353,3.994,3.994,0,0,1,.812-2.658,2.571,2.571,0,0,1,2.052-.961,2.664,2.664,0,0,1,2.2,1.006,4.752,4.752,0,0,1,.771,3.082h-4.139a1.931,1.931,0,0,0,.4,1.25,1.2,1.2,0,0,0,.952.447,0.954,0.954,0,0,0,.652-0.231A1.464,1.464,0,0,0,167.227,47.547Zm0.094-1.825a1.842,1.842,0,0,0-.37-1.192,1.094,1.094,0,0,0-.858-0.408,1.107,1.107,0,0,0-.894.431,1.767,1.767,0,0,0-.347,1.17h2.469Z"/>
  <path class="cls-1" d="M176.588,49.72h-1.652V46.235a5.891,5.891,0,0,0-.105-1.43,1,1,0,0,0-.344-0.5,0.923,0.923,0,0,0-.573-0.18,1.251,1.251,0,0,0-.771.257,1.288,1.288,0,0,0-.467.682,6.378,6.378,0,0,0-.127,1.568V49.72H170.9V42.894h1.534v1a2.44,2.44,0,0,1,2.058-1.157,2.3,2.3,0,0,1,1,.215,1.692,1.692,0,0,1,.685.55,2.065,2.065,0,0,1,.323.759,6.154,6.154,0,0,1,.092,1.215V49.72Z"/>
</svg>
