<!-- Generator: Adobe Illustrator 19.2.1, SVG Export Plug-In  -->
<svg version="1.1"
	 xmlns="http://www.w3.org/2000/svg" xmlns:xlink="http://www.w3.org/1999/xlink" xmlns:a="http://ns.adobe.com/AdobeSVGViewerExtensions/3.0/"
	 x="0px" y="0px" width="198.724px" height="160.858px" viewBox="0 0 198.724 160.858"
	 style="enable-background:new 0 0 198.724 160.858;" xml:space="preserve">
<style type="text/css">
	.st0{fill:#28447F;}
</style>
<defs>
</defs>
<g>
	<g>
		<g>
			<g>
				<g>
					<path class="st0" d="M5.414,160.445c-0.037,0.521,0.382,0.334,0.457,0.412C5.778,159.986,5.305,160.467,5.414,160.445z"/>
					<polygon class="st0" points="4.462,151.849 4.633,152.001 4.214,150.733 					"/>
					<path class="st0" d="M4.47,143.809c-0.714,0.76,0.115,2.913-0.139,4.345l-0.163,0.236l0.574,0.646
						C4.652,147.296,4.271,145.035,4.47,143.809z"/>
					<path class="st0" d="M6.014,139.523c-0.278,0.265-0.239-0.927-0.087,1c0.03-0.097,0.048-0.125,0.07-0.181
						C5.993,140.168,5.994,139.929,6.014,139.523z"/>
					<path class="st0" d="M5.998,140.341C6.018,141.188,6.231,139.787,5.998,140.341L5.998,140.341z"/>
					<path class="st0" d="M5.838,136.432l0.248,1.115c0.164-0.233,0.201-1.225,0.32-0.857
						C6.271,135.546,6.108,135.781,5.838,136.432z"/>
					<path class="st0" d="M5.317,135.374l0.105,0.578C5.491,135.851,5.515,135.698,5.317,135.374z"/>
					<path class="st0" d="M5.644,137.178l-0.222-1.225c-0.115,0.161-0.347,0.179,0.08,0.563
						C5.291,136.414,5.494,136.657,5.644,137.178z"/>
					<path class="st0" d="M5.535,137.872c-0.155,0.626-0.253,1.434-0.5,0.314C5.133,140.319,5.635,140.005,5.535,137.872z"/>
					<path class="st0" d="M3.732,143.399l-0.209,0.836l0.239,0.723C3.643,144.597,3.956,143.347,3.732,143.399z"/>
					<path class="st0" d="M6.208,129.485c-0.152-0.07-0.405,0.375-0.599,0.458l0.174,0.824
						C5.887,130.343,5.983,129.541,6.208,129.485z"/>
					<path class="st0" d="M5.609,129.943l-0.261-1.232C5.317,129.811,5.441,130.012,5.609,129.943z"/>
					<polygon class="st0" points="4.525,135.175 5.073,137.2 4.518,134.785 					"/>
					<polygon class="st0" points="6.227,124.777 6.579,125.476 6.047,124.232 					"/>
					<path class="st0" d="M6.165,121.655c0.291,0.517,0.493-0.709,0.672-0.162c-0.052-0.848-0.302-1.572-0.527-2.224
						C6.436,119.961,6.404,120.7,6.165,121.655z"/>
					<path class="st0" d="M5.983,118.174c0.07,0.346,0.195,0.705,0.328,1.095C6.243,118.901,6.147,118.539,5.983,118.174z"/>
					<path class="st0" d="M5.423,126.611c0.092-0.095,0.332-0.279,0.434-0.97l-0.427,0.485
						C5.428,126.273,5.426,126.441,5.423,126.611z"/>
					<path class="st0" d="M5.416,126.143l0.014-0.017c0.012-0.526,0.02-0.891,0.024-1.047
						C5.449,125.213,5.438,125.533,5.416,126.143z"/>
					<path class="st0" d="M5.421,126.733c0.001-0.045,0.001-0.078,0.002-0.122C5.381,126.658,5.367,126.686,5.421,126.733z"/>
					<path class="st0" d="M4.912,131.945c-0.239-0.724-0.495-2.234-0.859-0.773C4.345,131.691,4.552,130.855,4.912,131.945z"/>
					<path class="st0" d="M4.887,127.335l-0.098,1.309c0.113-0.026,0.277-0.262,0.396,0.097L4.887,127.335z"/>
					<polygon class="st0" points="4.751,126.694 4.887,127.335 4.923,126.85 					"/>
					<path class="st0" d="M5.583,120.416c-0.186-0.565-0.202-1.184-0.231-1.883c-0.084,0.749-0.129,1.523-0.128,2.258
						C5.357,120.896,5.598,121.219,5.583,120.416z"/>
					<path class="st0" d="M5.464,123.199c-0.008-0.039-0.017-0.089-0.024-0.126C5.404,123.151,5.392,123.213,5.464,123.199z"/>
					<polygon class="st0" points="5.354,111.655 5.277,111.765 5.351,111.791 					"/>
					<path class="st0" d="M5.143,120.917c-0.082,0.563,0.022,0.899,0.154,1.22c-0.043-0.421-0.071-0.867-0.074-1.346
						C5.163,120.745,5.123,120.736,5.143,120.917z"/>
					<path class="st0" d="M5.783,116.255c-0.089,0.293-0.165,0.626-0.235,0.975C5.684,116.943,5.895,116.358,5.783,116.255z"/>
					<path class="st0" d="M5.558,122.884c0.006,0.028,0.012,0.054,0.019,0.084C5.669,122.783,5.624,122.806,5.558,122.884z"/>
					<path class="st0" d="M5.558,122.884c-0.061-0.29-0.167-0.517-0.261-0.746c0.034,0.343,0.079,0.66,0.143,0.936
						C5.47,123.004,5.516,122.934,5.558,122.884z"/>
					<path class="st0" d="M2.611,109.57c0.396,0.099,0.762,1.579,0.337,2.857c0.297,1.257,1.6,0.435,2.328-0.662
						c-0.173-0.039-0.332-0.039-0.566-1.333c-0.216,0.453-0.506,2.871-0.864,1.779c-0.204-1.714,0.14-1.404,0.35-2.237
						c-0.494,0.708-0.718-2.18-1.444-1.807l0.255,1.503C2.895,109.698,2.714,109.153,2.611,109.57z"/>
					<path class="st0" d="M5.236,114.23l0.049,0.532c0.069-0.607,0.227-1.041,0.537-1.841c-0.193-0.886-0.34-1.07-0.472-1.13
						l-0.055,2.621L5.236,114.23z"/>
					<path class="st0" d="M5.287,117.152c-0.431-0.416-0.614-1.694-1.081-0.911c0.03,1.562,0.36,1.095,0.547,2.028
						c-0.107-2.521,0.24,0.724,0.484-1.097c0.073,0.495,0.096,0.941,0.114,1.362c0.052-0.454,0.117-0.892,0.197-1.304
						c-0.01,0.023-0.018,0.039-0.027,0.058l0.001,0.012l-0.007-0.002c-0.054,0.109-0.086,0.144-0.055,0.022
						c-0.005-0.008-0.007-0.039-0.009-0.053c-0.06-0.017-0.112-0.064-0.163-0.114c0.089-0.73,0.112-0.115,0.163,0.114
						c0.021,0.008,0.041,0.028,0.064,0.031l0.005-0.009l-0.236-2.525C5.226,115.297,5.238,115.966,5.287,117.152z"/>
					<path class="st0" d="M3.125,129.825c0.038-0.078,0.069-0.075,0.1-0.081C3.173,129.581,3.137,129.519,3.125,129.825z"/>
					<path class="st0" d="M3.386,128.786c0.06,0.184,0.232,0.337,0.188,0.933c-0.129,0.518-0.206-0.002-0.348,0.025
						c0.114,0.36,0.309,1.259,0.518,0.131l-0.059-0.179c0.148-1.017,0.686-2.323,0.745-2.145
						C4.043,127.848,3.766,128.109,3.386,128.786z"/>
					<path class="st0" d="M4.227,122.896l-0.211-2.103l-0.373,1.071l0.224-0.054C3.778,123.006,4.054,122.748,4.227,122.896z"/>
					<polygon class="st0" points="5.569,111.414 6.024,111.693 5.381,110.478 					"/>
					<polygon class="st0" points="5.514,108.681 5.91,108.782 5.671,108.061 					"/>
					<path class="st0" d="M52.366,1.483l0.618-0.112C52.691,1.406,52.503,1.443,52.366,1.483z"/>
					<path class="st0" d="M47.892,1.456l-0.11,0.195C47.99,1.544,48.075,1.465,47.892,1.456z"/>
					<path class="st0" d="M5.47,41.566c0.37-0.9,0.943-1.905,0.498-1.797l-0.434,0.276C5.611,40.675,5.563,41.157,5.47,41.566z"/>
					<path class="st0" d="M11.235,3.759c-0.085-0.043-0.175-0.088-0.263-0.132c-0.218,0.149-0.423,0.289-0.608,0.415
						C10.627,3.956,10.924,3.86,11.235,3.759z"/>
					<path class="st0" d="M11.87,1.963l1.187,0.28C12.79,2.146,12.409,2.052,11.87,1.963z"/>
					<path class="st0" d="M76.797,1.023l0.721-0.442C76.39,0.584,76.887,0.807,76.797,1.023z"/>
					<path class="st0" d="M5.354,80.693c0.169-0.777,0.241-1.395,0.262-1.938C5.367,79.691,4.993,80.446,5.354,80.693z"/>
					<path class="st0" d="M50.605,6.087c0.378-0.079,0.54-0.167,0.529-0.264C50.745,5.898,50.525,5.981,50.605,6.087z"/>
					<path class="st0" d="M5.615,76.512c-0.043,0.137-0.065,0.271-0.102,0.411c0.073,0.568,0.131,1.139,0.104,1.833
						C5.802,78.064,5.916,77.273,5.615,76.512z"/>
					<path class="st0" d="M165.404,1.383c0.064,0.019,0.142,0.029,0.201,0.052C165.624,1.376,165.535,1.373,165.404,1.383z"/>
					<path class="st0" d="M191.218,5.761c-0.254,0.027-0.669,0.027-1.06,0.033C190.349,5.824,190.668,5.821,191.218,5.761z"/>
					<path class="st0" d="M5.704,97.686C5.732,98.266,5.751,97.778,5.704,97.686L5.704,97.686z"/>
					<path class="st0" d="M3.988,100.505c-0.049-0.123-0.111-0.217-0.211-0.232C3.881,100.321,3.948,100.401,3.988,100.505z"/>
					<path class="st0" d="M2.914,70.739c0.001-0.017,0.001-0.031,0.002-0.05C2.831,70.861,2.847,70.831,2.914,70.739z"/>
					<path class="st0" d="M5.506,98.558c0.053-0.218,0.098-0.468,0.129-0.741C5.602,97.937,5.56,98.162,5.506,98.558z"/>
					<path class="st0" d="M5.711,98.441c-0.017,0.2-0.03,0.357-0.042,0.507C5.742,99.02,5.787,98.956,5.711,98.441z"/>
					<path class="st0" d="M5.68,96.879c0.007,0.331-0.014,0.641-0.045,0.938c0.029-0.114,0.054-0.161,0.068-0.131
						C5.699,97.516,5.692,97.276,5.68,96.879z"/>
					<path class="st0" d="M117.928,2.544c0.038,0.014,0.083,0.023,0.124,0.041C118.637,2.405,118.381,2.434,117.928,2.544z"/>
					<path class="st0" d="M0.964,26.482c0.004,0.027,0.016,0.041,0.021,0.066C0.99,26.521,0.996,26.487,1,26.462L0.964,26.482z"/>
					<path class="st0" d="M0.641,24.4c0.54,0.886,0.474,1.391,0.359,2.062l1.251-0.689L0.641,24.4z"/>
					<path class="st0" d="M63.077,1.358l-1.462-0.39C63.38,0.327,64.656,0.548,63.284,0c-0.207,1.358-5.682,0.139-5.886,1.496
						L56.435,1.21c0.276,0.013,0.32-0.067,0.593-0.053c-1.874-0.65-1.392,0.982-3.807,0.789c-0.841-0.104-1.429-0.301-0.855-0.462
						l-1.875,0.336c-0.546-0.026-0.412-0.262,0.131-0.236l-2.86,0.108l0.021-0.04c-0.408,0.213-1.333,0.542-1.784,0.683
						c-0.727-0.195,0.365-0.144,0.179-0.313L44.593,2.35c-0.645-0.352,0.667-0.693,1.761-0.643c-1.479-1.356-1.314,0.342-4.506-0.45
						l1.495-0.172c-0.964-0.771-2.131-0.491-3.822-0.972c0.401,0.251,3.385,1.211,1.666,1.549c-0.484-0.102-1.123-0.151-2.05,0.122
						C39.13,1.3,38.224,1.419,37.091,1.446l0.077-0.64c-1.225,0.185-1.128,0.51-1.849,0.798c-1.365-0.063-1.648-0.559-1.97-0.976
						c-2.186-0.102,1.51,0.794-1.078,0.915c-1.818-0.245-3.095,0.017-5.27,0.399c-1.273-0.22,0.222-0.391-0.234-0.574l-1.128,0.51
						c-0.276-0.012-0.187-0.169-0.142-0.248c-0.95,0.198-0.078,0.639-1.573,0.813c-0.403,0.705-3.068-1.03-4.917-0.229
						c-0.456-0.182,0.22-0.392,0.081-0.64c-2.537,0.525-2.175,0.381-4.259,1.088l-1.775-0.42c1.304,0.48-0.362,1.049-1.822,1.516
						c0.463,0.232,0.858,0.435,1.123,0.532l-2.329,0.343c-0.281-0.105-0.047-0.325,0.335-0.592c-0.159,0.053-0.31,0.105-0.427,0.153
						C9.105,3.959,9.536,3.59,10.133,3.232c0.281,0.132,0.563,0.265,0.839,0.395c0.575-0.389,1.113-0.819,0.994-1.193
						c-0.151,0.074-0.443,0.137-0.763,0.173c0.15-0.105,0.246-0.2,0.177-0.264C11.3,2.275,11.057,2.417,10.676,2.58l-0.53-0.713
						L10.018,2.15L6.971,1.704C6.851,1.758,6.521,1.813,6.308,1.87L5.62,2.044C5.178,2.162,4.765,2.284,4.376,2.407
						c-0.678,0.225-1.378,0.456-2.14,0.708c0.295,1.497,0.539,2.849,0.658,4.281C2.632,6.93,2.419,6.805,2.193,6.833
						C1.967,6.853,1.73,7.023,1.42,6.952c0.256-0.481,0.27-1.095,0.199-1.9c-0.071-0.797-0.226-1.803-0.306-2.86
						C1.808,2.147,2.36,2.125,2.947,2.154C1.552,2.085,1.554,1.79,1.851,1.686l-0.92,0.125l0.472,4.036
						C1.15,5.706,1.055,5.921,0.998,6.338C0.969,6.546,0.949,6.801,0.924,7.085c-0.025,0.26-0.057,0.662-0.109,0.819
						c1.002-0.632,0.667,2.384,0.974,3.686C1.452,11.67,1.109,11.358,1.19,9.77c-0.754,1.752,1.176,2.264,0.536,3.983
						c-0.008-0.388,0.043-0.597-0.128-0.75c0.299,0.906,0.062,3.119-0.231,2.599L1.36,15.215c-0.119,2.574-0.007,7.835,0.843,8.219
						c-0.11,0.026-1.025-0.337-1.197-0.493l2.862,4.593c-0.73-0.405-2.47,1.149-2.883-0.986c-0.104,0.613-0.225,1.371,0.032,2.663
						c0.104-0.418,1.056-1.042,1.123-0.471c-0.813,1.568-0.435,1.089-1.128,3.022c0.157-0.627,1.302,0.07,1.266,1.06
						c-0.171-0.155-1.131,0.083-1.25-0.28l1.125,2.465c-0.203-0.615-0.953-0.109-1.271,0.443c0.22-0.256-0.021,2.131,0.091,2.788
						l0.261-1.045c-0.17,2.783,1.581,2.749,1.522,5.51c-0.233-0.334-1.43-0.826-1.571,0.579c0.576,0.643,2.77,2.849,3.214,5.292
						l-0.329,0.469l0.375,1.874c-0.867-1.167-2.69-4.442-3.4-6.231c-0.261,1.041-0.388,0.29-0.358,1.85
						c-0.309,0.551-0.468-0.85-0.486-1.309L0,48.858c0.673-0.162,0.674,2.777,1.234,2.638l-0.697-3.944
						c0.671-0.16,1.908,2.28,1.79,4.853c-0.268,0.655-1.197-0.49-1.421-0.436c0.232,0.334,0.442,2.442,0.278,2.678l-0.359-1.091
						c-0.253,1.432,0.891,2.338,0.249,4.059c-0.043,0.594-0.866,1.774-0.468,1.877c0.767-0.969,3.14-1.158,3.716-0.512
						c-0.052,0.208-0.733,3.119-1.112,3.798c-0.601,0.978-1.434-1.469-1.95-0.636c0.184,0.036,0.41,0.576,0.483,0.801
						c-0.157,0.624-0.569-0.258-0.486,1.097c0.682,0.226-0.058,2.757,0.576,0.641c0.195,1.326-0.14,1.409-0.11,2.967
						c0.44-0.496,1.499,1.398,1.693,2.727c-0.173-0.078-0.399,0.22-0.502,0.365c-0.061,2.718-0.371,4.177-0.377,6.712
						c-0.165,0.234-0.365,1.457-0.658,0.936C2,78.752,2.231,79.086,2.248,79.868c-0.589,1.513-0.092-1.743-0.8-0.59
						c0.396,0.099,0.546,2.022,0.794,3.135c0.612-0.343,0.117-2.573-0.13-3.688c0.844-0.005,1.727,1.936,2.118,4.586
						c0.21,2.106-0.545,0.913-0.425,1.278c-0.147,3.955,1.474,3.369,0.865,6.654c-0.538,1.303-1.07,0.059-1.458,0.348
						c-0.204-1.715,0.341-2.633,0.32-3.796l-0.254,1.431c-0.179-0.546-0.314-1.691-0.159-2.315
						c-0.483,1.092-0.093,6.682-0.539,9.733c0.18,0.542,0.367,1.478,0.583,1.035l-0.075-0.965c0.434-0.887,0.6,1.817,0.802,0.595
						c0.305,1.295,0.784,2.747,0.539,4.57l-0.613,0.343c0.179-0.039,0.365-1.192,0.178-1.704c0.272,0.76-0.83,2.796-0.027,3.628
						l0.425-1.278c0.308,1.3,0.959,2.908,0.766,4.524c0.605-0.735-0.069-0.372,0.639-1.521c-0.881,0.995,0.037-4.134-0.889-2.535
						c0.822-1.178,0.349-2.039,1.05-3.579c-0.202,0.048-0.387,0.546-0.287-0.811c-0.059-0.061-0.134-0.206-0.178-0.298
						c0.007-0.041,0.009-0.056,0.015-0.092c-0.009,0.027-0.015,0.048-0.024,0.075c-0.03-0.059-0.037-0.064-0.008,0.028
						c-0.088,0.323-0.195,0.585-0.308,0.691c-0.464-0.673-0.45-2.831-0.69-3.56c0.096-0.805,0.232,0.337,0.448-0.103l-0.359-1.09
						c0.449-0.108,0.746-2.138,1.009-0.242l0.02-1.707c0.252-1.005,0.352-2.387,0.163-3.239c0.097-0.805-0.497-2.033-0.145-1.332
						l-0.278-2.677l0.112-0.025c0.057-2.641-0.744-5.436,0.067-8.456c-0.113-0.889-0.252-1.808-0.124-3.295l0.389-0.29
						c-0.136-1.141,0.389-3.428-0.016-3.918c1.045-1.231,0.228-5.54,0.414-7.548l-0.507-0.076c0.029-1.382-0.115-2.707-0.319-4.422
						L4.9,57.478c-0.368-1.479,0.319-3.802,0.273-6.141c0.171,0.159,0.127,0.752,0.023,1.172c1.013-2.795-0.737-5.896,0.001-8.431
						c-0.163-0.632-0.108-1.089,0.005-1.532c0.001,0.059,0.009,0.111,0.023,0.157c0.005-0.065,0.006-0.161,0.005-0.259
						c0.077-0.279,0.167-0.566,0.239-0.877c-0.109,0.265-0.199,0.518-0.24,0.738c-0.009-0.487-0.065-1.226-0.177-1.95l0.481-0.308
						c-0.005-0.059-0.009-0.106-0.014-0.167c0.178-0.711-0.228-0.571-0.59-0.192c-0.079-0.365-0.174-0.699-0.291-0.958
						c0.777-0.577-0.262-1.9,0.567-2.688c-0.404-0.488-0.304-3.641-1.155-4.026c0.111-0.025,0.164-0.238,0.17,0.153
						c0.097-0.807,0.194-1.614-0.046-2.338l0.612-0.343l-0.823-1.763c0.373-1.071,0.59-1.515,1.061-0.452
						c-0.725-2.568-0.273-2.083-0.991-4.267l0.396,0.107c-0.015-0.781-0.545-2.028-0.218-2.499c0.376-0.873,0.402-3.033,0.422-5.535
						c0.01-1.251,0.018-2.587,0.067-3.891c0.025-0.652,0.06-1.296,0.11-1.916c0.03-0.31,0.06-0.615,0.088-0.912
						c0.018-0.148,0.036-0.295,0.054-0.44l0.03-0.208l0.032-0.1C4.433,7.828,4.564,7.519,4.727,7.19
						c0.163-0.33,0.36-0.543-0.092-0.892c0.275,0.01,0.431-0.105,0.671,0.369c-0.053-0.214-0.068-0.4-0.065-0.546
						C5.573,6.128,5.89,6.216,6.121,6.226c0.243,0.01,0.396-0.059,0.691-0.365c0.106,0.277-0.187,0.404-0.078,0.568
						c0.015-0.014,0.037-0.035,0.063-0.06c0.017-0.011,0.021-0.023,0.052-0.033l0.139-0.028c0.188-0.032,0.384-0.036,0.503,0.046
						c0.247,0.164-0.367,0.231-0.665,0.352c2.272-0.046,2.555-0.896,2.711-1.693c1.184,0.378,1.775,0.324,2.63-0.199
						c0.412,0.261,1.1,0.534-0.352,0.627c0.817,0.038,4.989,0.382,5.073-0.257c0.256,0.162,1.142,0.047,1.357-0.026
						c1.833,0.038,1.994,0.096,3.793,0.035l-0.499-0.104c0.711-0.771,1.496-0.172,2.947-0.265l-0.041,0.079
						c3.327,0.556,1.436-0.267,4.718,0.368l-0.179-0.479c0.306-1.032,2.908,0.608,4.813,0.214l-0.688-0.274
						c1.04-0.353,2.908,1.403,3.953,1.532c0.228,0.09-0.36,0.144-0.677,0.21c2.735,0.608,0.354-0.628,2.393-0.774
						c0.376,0.339-0.484,0.862,0.887,0.925c0.683,0.274,3.979-1.1,5.851-0.45c-0.413-0.261-0.822-0.522,0.125-0.718
						c1.451-0.093,3.923,0.987,5.233,0.164c0.185,0.071,0.254,0.14,0.262,0.205c1.109-0.212,3.605-0.353,4.273-0.799
						c1.025,1.657,6.896-0.806,6.871,0.722l3.412-0.082l-0.089,0.156c2.181,0.101,2.952-0.265,3.719-0.632
						c0.504,0.104,0.136,0.247,0.094,0.327c3.187,0.308,3.503,0.243,6.175-0.518l0.278,0.496c0.724-0.288,4.607,0.777,7.733,0.199
						c-0.031,0.056-0.095,0.152-0.344,0.222c3.516-0.582,8.418,1.375,9.707-0.43l2.32-0.445c-3.002-0.14,0.447-0.783-0.788-1.083
						c1.181-0.106,3.052,0.544,1.602,0.637l-0.227-0.09c-0.533,0.941,3.73,0.334,3.65,0.974c5.908-0.046,11.665,0.475,17.199,0.515
						l-0.637-0.732l1.93,0.042c0.507,0.17,0.68,0.572-0.697,0.542c0.724,0.415,2.309-0.347,2.349-0.506
						c2.696,0.296-1.053,0.853-0.226,0.871l1.123-0.055l-0.253-0.086c0.91-0.299,0.991-0.616,2.646-0.58
						c1.047,0.146,0.537,0.451,0.949,0.479c-0.002,0.052,0.137,0.076,0.632,0.021l2.432,0.062l-0.972-0.578
						c1.078-0.285,2.287,0.03,1.165-0.624c1.647,1.009,9.071,0.362,10.083,0.675c1.51-0.421,3-0.414,4.846-0.363
						c-0.459-0.12-0.734-0.769,0.859-0.69c-0.582,1.34,2.915,0.582,4.202,1.546c-1.15-0.639,4.526-0.158,2.722-1.066
						c1.329,0.108,0.081,0.502,1.089,0.817c3.162-0.519,6.968,0.337,10.877,0.162c0.061-0.176-0.594-0.445,0.245-0.706l2.064,0.879
						c0.772-0.086,0.711-1.015,2.121-0.405c-0.199-0.148-0.496-0.371,0.021-0.427c7.657,0.857,15.646-0.702,23.421,0.908
						c-1.053-0.341-0.351-0.375,0.453-0.387c-0.523-0.081,0.012-0.435-0.091-0.673l3.255,0.662c0.593-0.662,3.49-0.045,3.83-0.677
						l-1.031,0.114c1.371-0.747-1.918-1.659-1.718-2.617c-1.535,0.849-4.048-1.257-6.566-0.042
						c-0.556-0.195,0.474-0.308,0.177-0.531c-0.638,0.411-1.409,0.496-2.838,0.312l0.162-0.102c-4.014,0.1-5.735-0.305-10.244-0.574
						l0.334,0.474c-0.969-0.063-1.173-0.212-1.627-0.331c-1.112,0.718,2.722,0.041,1.708,0.833c-1.285-0.964-6.833-0.015-7.702-1.11
						c-1.491-0.006,0.437,0.548-1.053,0.542l-0.395-0.296l-0.377,0.382c-0.977-0.063-1.47-0.434-1.507-0.685
						c0.237,0.03,0.674-0.07,0.928-0.092c-1.267-0.349-3.573,0.119-4.009,0.005l1.432,0.183c-4.068,0.277-9.035-0.112-12.966,0.491
						l0.298,0.224c-3.001,0.414-2.404-0.246-5.699-0.054l0.12-0.053c-0.659,0.223-1.54,0.335-2.442,0.31
						c0.832-0.262-1.566-0.509-0.474-0.798c-3.255,0.444-1.61,0.349-3.759,1.179l-0.496-0.371c-0.733,0.335-0.794,0.512-2.44,0.608
						c1.35-0.318-1.05-0.565,0.462-0.986c-3.453-0.811-5.128,0.819-6.712-0.367c-1.586,1.026,2.989,0.57,2.1,0.79
						c0.744,0.335-1.309,0.767-2.393,0.664c-1.103-0.023-1.876-1.313-4.651-1.293c0.276,0.005,0.295-0.073,0.57-0.068
						c-1.039-0.262-2.035,0.354-3.309-0.071c-0.714,0.621-1.654-0.036-1.86,0.756l2.546-0.183c-1.443,0.207-2.796,1.133-5.174,0.684
						c0.185-0.16,0.893-0.37,1.379-0.487c-0.695-0.233-1.339,0.155-2.059-0.085c0.205-0.792,3.094-0.172,4.64-0.776
						c-0.746-0.335-2.925,0.574-2.148-0.284c-1.117,1.091-2.734-0.138-4.614,0.695l0.124-0.475
						c-0.297,0.075-0.914,0.299-1.461,0.287l0.991-0.615c-1.521,0.525-2.933-0.459-4.393-0.173c3.056-0.015,0.686,0.572,1.978,0.918
						c-3.769,0.635-2.167-1.241-6.387-1.014c0.571-0.067,2.145,0.285,1.251,0.505c-0.803-0.098-1.864-0.28-2.357-0.529
						c-2.796,0.099,0.429,0.488-0.761,0.78c-0.952-0.578-1.373,0.235-2.598,0.421l-0.009-0.483c-3.186-0.31-0.845,1.005-3.713,0.631
						l1.212-0.669L96.13,1.851l0.308-0.549c-1.627,0.407-2.133,0.302-3.727,0.148c0.37,0.34-0.208,0.875-1.619,0.891
						c-0.962-0.287,0.539-0.458-1.461-0.39c0.452-0.302,0.946-0.681,1.817-0.236c0.089-0.157,0.445-0.303,0.537-0.458
						c-1.036-0.33-2.605-0.075-3.329-0.071c0.279,0.018,0.612,0.044,0.783,0.113L86.54,1.967c-0.456-0.181-0.094-0.327,0.264-0.469
						c-0.587,0.052-0.994,0.274-1.857,0.315c0.224-0.392,0.17-0.797,1.392-0.982l-2.763,0.435c-0.185-0.17-1.418-0.468-1.059-0.613
						c-1.532-0.231-3.757,0.761-5.787,0.457c-0.105,0.076-0.317,0.149-0.749,0.205c-1.908-0.089-3.599-0.57-5.861-0.032L68.838,0.58
						c-1.771,0.16,1.737,0.886-1.212,1.151c-2.088,0.224-0.78-0.6-1.512-0.795c-1.039,0.354-2.844,1.076-4.762,0.503
						C61.986,1.307,62.484,1.411,63.077,1.358z M41.23,1.67c0.423-0.101,1.267-0.414,1.577-0.129
						C42.325,2.094,41.952,1.829,41.23,1.67z M8.019,2.831c0.315-0.16,0.801-0.081,1.351,0.102C8.971,2.973,8.52,2.955,8.019,2.831z
						 M5.311,91.333c-0.008-0.018-0.014-0.031-0.023-0.045C5.476,90.344,5.401,90.679,5.311,91.333z M5.102,93.294
						c0.067,0.197,0.134,0.183,0.202,0.1c-0.122-0.137-0.13-0.577-0.096-1.079C5.081,92.455,4.993,92.708,5.102,93.294z
						 M124.119,5.791l-0.382-0.126C124.599,5.526,124.358,5.651,124.119,5.791z"/>
					<path class="st0" d="M11.785,2.171c0.12,0.081,0.153,0.171,0.181,0.262C12.132,2.352,12.136,2.259,11.785,2.171z"/>
					<path class="st0" d="M76.664,1.105l0.066,0.005c0.037-0.029,0.056-0.058,0.067-0.087L76.664,1.105z"/>
					<path class="st0" d="M1.011,62.92c0.069-0.404,0.158-0.629,0.249-0.778C1.142,62.119,1.043,62.303,1.011,62.92z"/>
					<path class="st0" d="M5.921,103.685l-0.126-1.256c0.024,0.608-0.082,0.824-0.158,1.131
						C5.75,103.532,5.914,103.292,5.921,103.685z"/>
					<path class="st0" d="M2.936,114.587c0.059,0.183,0.006,0.389,0.066,0.57l0.224-0.05C3.212,114.325,3.031,113.779,2.936,114.587
						z"/>
					<path class="st0" d="M4.318,104.848c-0.406,0.1-0.268,0.887-0.193,1.767c-0.001-0.053-0.005-0.103,0-0.156
						C4.693,106.719,4.505,105.781,4.318,104.848z"/>
					<path class="st0" d="M4.139,106.819c0.019,0.271,0.03,0.548,0.01,0.813C4.377,107.735,4.197,107.303,4.139,106.819z"/>
					<path class="st0" d="M5.371,95.781c-0.104,0.417,0.519,0.262,0.353,0.498C6.241,96.745,5.099,93.497,5.371,95.781z"/>
					<polygon class="st0" points="2.981,105.56 3.482,105.245 3.079,104.752 					"/>
					<path class="st0" d="M3.349,98.613l-0.139,1.406c0.084-0.021,0.133,0.157,0.171,0.377C3.398,99.529,3.498,98.58,3.349,98.613z"
						/>
					<path class="st0" d="M3.381,100.396c-0.01,0.451,0.001,0.88,0.083,1.132C3.459,101.283,3.442,100.758,3.381,100.396z"/>
					<polygon class="st0" points="2.831,103.638 2.936,103.223 2.972,102.23 					"/>
					<path class="st0" d="M3.446,83.5l-0.144-1.534c-0.172-0.156-0.277,0.262-0.209,0.833C3.213,83.167,3.28,83.736,3.446,83.5z"/>
					<path class="st0" d="M2.074,88.141c0.104-0.415,0.216-0.443,0.381-0.677l-0.621-0.047L2.074,88.141z"/>
					<path class="st0" d="M1.929,83.666c-0.172-0.153-0.495-2.227-0.456-0.282C1.644,83.54,1.787,85.076,1.929,83.666z"/>
					<polygon class="st0" points="2.714,60.547 2.722,60.938 3.741,60.881 					"/>
					<path class="st0" d="M0.278,40.171c-0.244,1.818,0.628,0.432,0.324,2.075c0.241,0.427,0.249-1.343,0.457-0.905
						C0.804,40.243,0.948,39.667,0.278,40.171z"/>
					<path class="st0" d="M1.058,41.34c0.04,0.176,0.089,0.362,0.155,0.56C1.149,41.583,1.101,41.433,1.058,41.34z"/>
					<polygon class="st0" points="195.501,6.308 196.671,6.52 195.916,6.178 					"/>
					<path class="st0" d="M197.746,5.552l0.275,0.649l0.702-0.587C198.459,5.643,197.947,5.699,197.746,5.552z"/>
					<path class="st0" d="M37.982,0.362l-0.089,0.156c0.181,0.169,0.455,0.182,1.003,0.208L37.982,0.362z"/>
					<polygon class="st0" points="53.839,0.848 53.566,0.835 54.076,1.422 					"/>
					<path class="st0" d="M67.147,0.1c-0.543-0.024-1.182,0.107-1.727,0.082C66.604,0.075,67.294,0.831,67.147,0.1z"/>
				</g>
			</g>
		</g>
	</g>
</g>
</svg>